<svg width="1363" height="533" viewBox="0 0 1363 533" fill="none" xmlns="http://www.w3.org/2000/svg">
<rect width="1440" height="533" transform="translate(0.5)" fill="#08163D"/>
<path d="M0.5 218.694C21.5627 218.694 42.6207 218.84 63.6016 216.753C158.483 207.316 252.851 190.858 347.238 178.031C402.866 170.472 458.3 161.048 514.725 161.048C534.779 161.048 555.2 160.948 575.045 163.959C620.153 170.803 664.073 186.119 707.987 197.344C792.902 219.049 876.099 237.79 963.601 248.294C1055.11 259.28 1147.53 266.185 1239.64 271.489C1282.14 273.935 1326.54 277.878 1368.95 271.877C1386.17 269.44 1408.76 265.574 1423.17 256.155C1427.87 253.088 1435.52 253.524 1440.5 250.138" stroke="white" stroke-opacity="0.17" stroke-linecap="round"/>
<path d="M64.0259 363.679C72.4479 361.131 80.045 355.818 87.7692 352.033C122.096 335.213 158.899 323.302 196.218 313.214C242.244 300.771 289.315 291.696 335.897 281.188C369.632 273.578 403.269 266.171 437.502 260.613C488.702 252.301 537.583 250.057 589.587 255.179C673.655 263.457 749.733 295.934 825.737 327.383C892.382 354.959 964.278 377.894 1037.5 385.223C1064.64 387.94 1091.97 387.754 1119.21 388.911C1149.33 390.191 1179.3 391.928 1209.48 390.852C1264.76 388.881 1320.6 379.097 1374.61 368.531C1395.63 364.419 1414.93 357.097 1434.72 349.704" stroke="white" stroke-opacity="0.17" stroke-linecap="round"/>
<path d="M65.9517 466.743C92.7146 454.782 116.843 439.865 142.315 425.886C176.425 407.167 213.337 390.619 250.658 377.847C323.844 352.801 400.335 342.716 478.144 342.716C546.127 342.716 613.713 349.855 680.176 362.708C712.507 368.96 744.162 377.004 776.112 384.641C816.832 394.373 858.452 400.571 898.893 411.232C1019.29 442.972 1140.22 469.425 1266.38 470.237C1286.39 470.366 1306.48 470.631 1326.49 470.14C1344.57 469.697 1358.85 462.638 1375.58 457.427C1389.43 453.113 1403.26 447.926 1415.47 440.54" stroke="white" stroke-opacity="0.17" stroke-linecap="round"/>
<path d="M154.507 487.708C200.314 487.708 239.576 466.138 281.566 452.674C339.392 434.132 401.807 425.101 462.315 417.64C512.908 411.401 563.899 412.593 614.828 412.593C640.269 412.593 665.811 412.519 691.192 414.34C711.047 415.764 729.78 421.013 748.946 425.598C814.482 441.275 881.106 468.493 949.587 468.493" stroke="white" stroke-opacity="0.17" stroke-linecap="round"/>
<path d="M350.872 485.957C356.339 489.925 365.781 489.035 372.049 488.868C394.387 488.272 416.211 484.251 437.717 478.969C472.855 470.339 506.929 461.661 542.958 456.066C586.564 449.294 629.09 449.272 673.225 449.272C709.929 449.272 748.623 456.685 784.134 465.091C794.877 467.634 805.672 469.499 816.754 470.235C823.367 470.674 829.362 474.471 836.006 475.475" stroke="white" stroke-opacity="0.17" stroke-linecap="round"/>
<path d="M629.92 107.068C647.33 116.203 665.387 125.64 683.8 133.168C708.372 143.214 732.915 144.467 759.799 147.484C860.171 158.748 960.492 159.415 1061.64 162.384C1113.36 163.902 1165.98 164.9 1217.61 161.41C1245.1 159.552 1272.2 160.23 1299.39 156.054C1324.26 152.235 1349.36 147.359 1374.48 145.244C1396.83 143.363 1418.32 136.537 1440.5 133.363" stroke="white" stroke-opacity="0.17" stroke-linecap="round"/>
<path d="M64.0259 141.826C105.482 151.23 144.581 156.142 187.555 155.704C232.223 155.248 275.747 149.322 319.641 142.214C395.315 129.959 468.199 111.475 542.208 93.1075C603.985 77.7757 669.656 71.1406 733.438 68.6513C757.482 67.7129 785.972 64.97 809.053 71.951" stroke="white" stroke-opacity="0.17" stroke-linecap="round"/>
<path d="M905.317 197.732C920.474 198.68 933.39 204.422 947.884 208.019C978.39 215.59 1010.86 215.055 1042.22 215.201C1104.98 215.492 1165.04 210.863 1227.03 202.875C1274.02 196.82 1320.95 187.89 1368.21 183.757C1388.01 182.025 1407.07 176.77 1427.03 176.77" stroke="white" stroke-opacity="0.17" stroke-linecap="round"/>
<path d="M4.89111 147.174C13.9916 143.561 20.5926 133.405 27.1868 127.064C35.4189 119.149 44.0229 111.883 54.3555 106.288C77.4602 93.7765 100.944 86.7999 127.718 85.2695C153.452 83.7986 180.546 84.0596 206.22 85.5724C238.717 87.4872 271.668 86.1175 304.214 86.1175C335.949 86.1175 366.533 84.3958 398.069 81.1506C423.903 78.4923 449.231 72.5146 474.836 68.6727C488.586 66.6097 501.438 62.4458 514.487 58.3755C519.98 56.6623 525.237 54.2631 530.909 53.1663C535.117 52.3524 537.538 49.6244 541.99 49.0474" stroke="white" stroke-opacity="0.17" stroke-linecap="round"/>
<path d="M777.402 102.886C802.084 106.196 824.69 115.901 849.883 117.536C889.101 120.081 929.257 119.376 968.348 115.954C1036.94 109.951 1106.24 102.762 1174.17 92.9132C1226.34 85.349 1280.07 83.0776 1333.06 83.0776C1355.71 83.0776 1378.36 83.0776 1401.01 83.0776C1414.86 83.0776 1427.42 83.2845 1440.5 86.7917" stroke="white" stroke-opacity="0.17" stroke-linecap="round"/>
<path d="M827.339 46C868.647 47.111 895.569 59.0973 931.778 64.3238C951.617 67.1873 970.478 70.8941 991.485 72.4991C1031.54 75.5596 1074.9 73.9086 1115.58 73.9086C1151.58 73.9086 1186.79 74.0892 1222.26 71.3714C1254.4 68.9087 1285.41 64.8396 1317.53 62.421C1354.87 59.6087 1406.51 60.0101 1440.5 53.6114" stroke="white" stroke-opacity="0.17" stroke-linecap="round"/>
<path d="M1126.89 52.2118C1148.88 52.2118 1170.37 49.81 1192.26 48.4404C1210.28 47.3123 1228.42 47.5833 1246.48 47.5833C1261.32 47.5833 1276.19 47.1354 1290.97 48.3547" stroke="white" stroke-opacity="0.17" stroke-linecap="round"/>
<path d="M38.8315 76.0762C53.6692 76.0762 66.9554 70.5433 80.6572 66.1106C102.836 58.9355 124.29 55.6334 147.604 54.4742C164.187 53.6497 180.474 52.4453 197.19 52.4453C207.959 52.4453 218.655 53.5194 229.414 53.5194" stroke="white" stroke-opacity="0.17" stroke-linecap="round"/>
<path d="M303.996 52.4448C315.236 52.4448 326.102 54.593 337.272 54.593C345.184 54.593 353.276 55.0854 361.013 53.2802C370.714 51.0166 379.246 47.2075 389.226 46" stroke="white" stroke-opacity="0.17" stroke-linecap="round"/>
<path d="M58.9639 295.196C67.066 293.051 74.8173 288.996 82.2442 285.528C101.789 276.403 121.103 267.048 141.431 259.391C181.325 244.365 224.154 233.953 266.119 224.9C312.901 214.807 360.072 202.161 408.168 198.524" stroke="white" stroke-opacity="0.17" stroke-linecap="round"/>
<path d="M389.229 230.75C410.766 234.369 432.006 234.23 453.808 231.824C476.537 229.316 496.721 222.363 517.928 215.115C533.705 209.724 552.373 203.652 569.158 201.749" stroke="white" stroke-opacity="0.17" stroke-linecap="round"/>
<path d="M588.975 189.49C603.216 190.977 615.616 197.789 629.446 200.887C641.149 203.509 652.745 206.08 663.925 210.273C676.365 214.939 688.229 221.294 699.758 227.555C714.975 235.819 729.544 246.725 742.076 258.096C748.409 263.842 755.659 269.005 761.86 274.633" stroke="white" stroke-opacity="0.17" stroke-linecap="round"/>
<path d="M840.611 274.438C906.338 298.667 978.248 307.208 1048.5 315.973C1080.46 319.961 1114.34 317.571 1146.36 317.571C1202.89 317.571 1259.42 317.571 1315.95 317.571" stroke="white" stroke-opacity="0.17" stroke-linecap="round"/>
<path d="M779.379 259.6C797.341 260.415 814.701 258.783 832.583 257.232C850.46 255.68 868.268 255.475 886.208 255.475" stroke="white" stroke-opacity="0.17" stroke-linecap="round"/>
<path d="M920.848 316.883C936.7 322.94 950.196 335.263 964.915 343.393C987.118 355.657 1016.18 362.893 1041.54 365.904C1065.97 368.804 1090.43 368.431 1114.99 369.014C1129.7 369.363 1144.23 371.39 1158.97 371.531C1168.71 371.624 1178.45 371.531 1188.19 371.531" stroke="white" stroke-opacity="0.17" stroke-linecap="round"/>
<path d="M1253.23 337.367C1262 338.814 1270.25 344.803 1278.99 347.208C1298.7 352.638 1319.63 347.144 1338.34 341.058C1355.56 335.451 1372.17 329.179 1387.59 320.145C1393.79 316.515 1403.24 314.423 1407.78 310.304" stroke="white" stroke-opacity="0.17" stroke-linecap="round"/>
<path d="M958.379 273.293C967.76 273.293 976.859 275.311 986.305 275.028C1000.26 274.611 1013.72 272.775 1027.74 273.691C1044.54 274.788 1060.78 278.238 1076.7 283.053" stroke="white" stroke-opacity="0.17" stroke-linecap="round"/>
<path d="M9.94727 390.141C25.163 368.568 48.8672 350.563 72.6495 337.214C82.1704 331.87 93.667 322.909 104.183 319.351C111.178 316.984 119.198 316.097 126.42 314.224" stroke="white" stroke-opacity="0.17" stroke-linecap="round"/>
<path d="M22.3398 444.216C35.1671 443.508 45.5228 440.787 56.5633 434.438C76.3663 423.05 93.8058 408.783 113.997 397.796C155.795 375.053 203.598 361.076 250.772 350.785C296.725 340.76 342.825 331.596 388.91 322.148C407.091 318.42 425.084 314.021 443.442 311.026C452.769 309.505 461.922 308.219 471.034 305.922" stroke="white" stroke-opacity="0.17" stroke-linecap="round"/>
<path d="M72.4365 389.093C94.2176 389.093 113.409 375.023 131.647 365.775C143.4 359.815 155.489 355.764 167.291 350.409" stroke="white" stroke-opacity="0.17" stroke-linecap="round"/>
<path d="M278.67 321.377C296.618 318.324 313.337 311.899 330.445 306.321C347.375 300.8 364.24 295.169 381.444 290.359C396.337 286.194 411.705 283.534 427.306 283.384C454.973 283.117 482.749 282.981 510.382 284.323C546.565 286.08 581.524 295.014 616.519 303.135C626.252 305.394 635.694 308.515 645.418 310.781C655.342 313.093 665.406 314.814 675.131 317.756" stroke="white" stroke-opacity="0.17" stroke-linecap="round"/>
<path d="M973.57 454.253C984.087 455.083 993.074 460.506 1003.31 462.405C1031.7 467.669 1060.63 468.671 1088.91 474.83C1102.48 477.784 1114.45 481.665 1127.29 486.621C1141.03 491.925 1155.36 496.528 1168.23 503.399" stroke="white" stroke-opacity="0.17" stroke-linecap="round"/>
<path d="M612.076 319.221C628.51 326.934 645.703 333.908 663.894 337.416C706.991 345.726 752.428 345.939 796.341 345.939" stroke="white" stroke-opacity="0.17" stroke-linecap="round"/>
<path d="M1086.99 418.33C1110.6 426.608 1134.1 429.745 1159.39 431.115C1186.16 432.565 1213 432.796 1239.81 432.934C1257.51 433.025 1275.48 433.586 1293.1 431.689C1333.27 427.365 1370.5 412.557 1409.93 405.402" stroke="white" stroke-opacity="0.17" stroke-linecap="round"/>
<path d="M873.761 372.976C879.898 375.528 885.491 379.712 891.256 382.905C898.776 387.07 906.109 390.626 914.627 392.834C928.002 396.302 941.75 399.127 955.494 401.048C965.097 402.39 974.933 402.7 984.404 404.419" stroke="white" stroke-opacity="0.17" stroke-linecap="round"/>
<path d="M1263.44 504.015C1265.23 503.44 1266.76 502.344 1268.32 501.397C1273.27 498.392 1278.25 495.424 1283.64 493.091C1299.18 486.364 1317.02 484.062 1333.94 482.009C1339.57 481.325 1345.08 481.264 1350.75 481.264" stroke="white" stroke-opacity="0.17" stroke-linecap="round"/>
</svg>
