<svg width="1467" height="977" viewBox="0 0 1467 977" fill="none" xmlns="http://www.w3.org/2000/svg">
<rect width="1440" height="938" transform="translate(17.5)" fill="#010101"/>
<path d="M8.5 183.694C29.5627 183.694 50.6207 183.84 71.6016 181.754C166.483 172.316 260.851 155.858 355.238 143.031C410.866 135.472 466.3 126.048 522.725 126.048C542.779 126.048 563.2 125.948 583.045 128.959C628.153 135.803 672.073 151.119 715.987 162.344C800.902 184.049 884.099 202.79 971.601 213.294C1063.11 224.28 1155.53 231.185 1247.64 236.489C1290.14 238.935 1334.54 242.878 1376.95 236.877C1394.17 234.44 1416.76 230.574 1431.17 221.155C1435.87 218.088 1443.52 218.524 1448.5 215.138" stroke="white" stroke-opacity="0.17" stroke-linecap="round"/>
<path d="M72.0254 328.678C80.4474 326.131 88.0445 320.817 95.7687 317.033C130.095 300.213 166.899 288.302 204.218 278.213C250.244 265.771 297.315 256.696 343.897 246.187C377.631 238.577 411.268 231.171 445.501 225.613C496.701 217.301 545.583 215.057 597.587 220.178C681.654 228.457 757.732 260.934 833.736 292.382C900.381 319.958 972.278 342.894 1045.5 350.223C1072.64 352.94 1099.97 352.753 1127.21 353.911C1157.33 355.191 1187.3 356.928 1217.48 355.852C1272.76 353.881 1328.6 344.097 1382.61 333.531C1403.63 329.418 1422.93 322.097 1442.72 314.703" stroke="white" stroke-opacity="0.17" stroke-linecap="round"/>
<path d="M73.9512 431.744C100.714 419.782 124.843 404.865 150.315 390.886C184.425 372.167 221.336 355.619 258.657 342.847C331.844 317.801 408.334 307.716 486.144 307.716C554.127 307.716 621.712 314.855 688.176 327.708C720.506 333.96 752.161 342.005 784.112 349.641C824.831 359.373 866.452 365.571 906.892 376.232C1027.29 407.972 1148.22 434.425 1274.38 435.237C1294.38 435.366 1314.48 435.631 1334.49 435.14C1352.57 434.697 1366.85 427.639 1383.58 422.427C1397.42 418.113 1411.26 412.926 1423.47 405.54" stroke="white" stroke-opacity="0.17" stroke-linecap="round"/>
<path d="M162.508 452.708C208.315 452.708 247.577 431.138 289.567 417.674C347.392 399.132 409.808 390.101 470.315 382.64C520.908 376.401 571.9 377.593 622.829 377.593C648.269 377.593 673.811 377.519 699.192 379.34C719.048 380.764 737.78 386.013 756.946 390.598C822.482 406.275 889.107 433.493 957.588 433.493" stroke="white" stroke-opacity="0.17" stroke-linecap="round"/>
<path d="M358.872 450.957C364.339 454.925 373.781 454.035 380.049 453.868C402.387 453.272 424.211 449.251 445.717 443.969C480.855 435.339 514.929 426.661 550.958 421.066C594.564 414.294 637.09 414.272 681.225 414.272C717.929 414.272 756.623 421.685 792.134 430.091C802.877 432.634 813.672 434.499 824.754 435.235C831.367 435.674 837.362 439.471 844.006 440.475" stroke="white" stroke-opacity="0.17" stroke-linecap="round"/>
<path d="M637.92 72.0684C655.33 81.2027 673.387 90.6402 691.8 98.1679C716.372 108.214 740.915 109.467 767.799 112.484C868.171 123.748 968.492 124.415 1069.64 127.384C1121.36 128.902 1173.98 129.9 1225.61 126.41C1253.1 124.552 1280.2 125.23 1307.39 121.054C1332.26 117.235 1357.36 112.359 1382.48 110.244C1404.83 108.363 1426.32 101.537 1448.5 98.3627" stroke="white" stroke-opacity="0.17" stroke-linecap="round"/>
<path d="M72.0254 106.825C113.481 116.23 152.581 121.141 195.555 120.703C240.223 120.248 283.747 114.322 327.64 107.214C403.314 94.9586 476.198 76.4745 550.207 58.1072C611.985 42.7754 677.655 36.1404 741.437 33.6511C765.482 32.7127 793.972 29.9697 817.052 36.9507" stroke="white" stroke-opacity="0.17" stroke-linecap="round"/>
<path d="M913.317 162.732C928.474 163.68 941.39 169.422 955.884 173.019C986.39 180.59 1018.86 180.055 1050.22 180.201C1112.98 180.492 1173.04 175.863 1235.03 167.875C1282.02 161.82 1328.95 152.89 1376.21 148.757C1396.01 147.025 1415.07 141.77 1435.03 141.77" stroke="white" stroke-opacity="0.17" stroke-linecap="round"/>
<path d="M12.8906 112.174C21.9911 108.561 28.5921 98.405 35.1863 92.0642C43.4184 84.1484 52.0224 76.8832 62.355 71.2879C85.4597 58.7764 108.943 51.7997 135.717 50.2694C161.451 48.7984 188.545 49.0595 214.219 50.5723C246.716 52.4871 279.667 51.1174 312.213 51.1174C343.949 51.1174 374.532 49.3956 406.069 46.1505C431.902 43.4922 457.23 37.5145 482.835 33.6726C496.585 31.6095 509.437 27.4457 522.487 23.3754C527.979 21.6622 533.236 19.263 538.908 18.1661C543.117 17.3523 545.538 14.6243 549.989 14.0472" stroke="white" stroke-opacity="0.17" stroke-linecap="round"/>
<path d="M785.402 67.8863C810.084 71.1966 832.69 80.9015 857.883 82.5365C897.101 85.0815 937.257 84.3758 976.348 80.9545C1044.94 74.9515 1114.24 67.762 1182.17 57.9133C1234.34 50.3491 1288.07 48.0778 1341.06 48.0778C1363.71 48.0778 1386.36 48.0778 1409.01 48.0778C1422.86 48.0778 1435.42 48.2846 1448.5 51.7919" stroke="white" stroke-opacity="0.17" stroke-linecap="round"/>
<path d="M835.339 11C876.647 12.111 903.569 24.0973 939.778 29.3238C959.617 32.1873 978.478 35.8941 999.485 37.4991C1039.54 40.5596 1082.9 38.9086 1123.58 38.9086C1159.58 38.9086 1194.79 39.0892 1230.26 36.3714C1262.4 33.9087 1293.41 29.8396 1325.53 27.421C1362.87 24.6087 1414.51 25.0101 1448.5 18.6114" stroke="white" stroke-opacity="0.17" stroke-linecap="round"/>
<path d="M1134.89 17.2119C1156.88 17.2119 1178.37 14.8102 1200.26 13.4405C1218.28 12.3124 1236.42 12.5834 1254.48 12.5834C1269.32 12.5834 1284.19 12.1355 1298.97 13.3548" stroke="white" stroke-opacity="0.17" stroke-linecap="round"/>
<path d="M46.832 41.0759C61.6697 41.0759 74.9559 35.543 88.6576 31.1104C110.837 23.9353 132.291 20.6332 155.605 19.474C172.187 18.6495 188.474 17.4451 205.191 17.4451C215.96 17.4451 226.655 18.5192 237.415 18.5192" stroke="white" stroke-opacity="0.17" stroke-linecap="round"/>
<path d="M311.996 17.4448C323.236 17.4448 334.102 19.593 345.272 19.593C353.184 19.593 361.276 20.0854 369.013 18.2802C378.714 16.0166 387.246 12.2075 397.226 11" stroke="white" stroke-opacity="0.17" stroke-linecap="round"/>
<path d="M66.9639 260.196C75.066 258.051 82.8173 253.996 90.2442 250.528C109.789 241.403 129.103 232.048 149.431 224.391C189.325 209.365 232.154 198.953 274.119 189.9C320.901 179.807 368.072 167.161 416.168 163.524" stroke="white" stroke-opacity="0.17" stroke-linecap="round"/>
<path d="M397.229 195.75C418.766 199.369 440.006 199.23 461.808 196.824C484.537 194.316 504.721 187.363 525.928 180.115C541.705 174.723 560.373 168.652 577.158 166.748" stroke="white" stroke-opacity="0.17" stroke-linecap="round"/>
<path d="M596.975 154.49C611.216 155.977 623.616 162.788 637.446 165.887C649.149 168.509 660.745 171.08 671.925 175.273C684.365 179.939 696.229 186.293 707.758 192.555C722.975 200.819 737.544 211.724 750.076 223.096C756.409 228.842 763.659 234.005 769.86 239.633" stroke="white" stroke-opacity="0.17" stroke-linecap="round"/>
<path d="M848.611 239.438C914.338 263.667 986.248 272.208 1056.5 280.973C1088.46 284.961 1122.34 282.571 1154.36 282.571C1210.89 282.571 1267.42 282.571 1323.95 282.571" stroke="white" stroke-opacity="0.17" stroke-linecap="round"/>
<path d="M787.379 224.6C805.341 225.415 822.701 223.783 840.583 222.232C858.46 220.68 876.268 220.475 894.208 220.475" stroke="white" stroke-opacity="0.17" stroke-linecap="round"/>
<path d="M928.848 281.883C944.7 287.94 958.196 300.263 972.915 308.393C995.118 320.657 1024.18 327.893 1049.54 330.904C1073.97 333.804 1098.43 333.431 1122.99 334.014C1137.7 334.363 1152.23 336.39 1166.97 336.531C1176.71 336.624 1186.45 336.531 1196.19 336.531" stroke="white" stroke-opacity="0.17" stroke-linecap="round"/>
<path d="M1261.23 302.367C1270 303.814 1278.25 309.803 1286.99 312.208C1306.7 317.638 1327.63 312.144 1346.34 306.058C1363.56 300.451 1380.17 294.179 1395.59 285.145C1401.79 281.515 1411.24 279.423 1415.78 275.304" stroke="white" stroke-opacity="0.17" stroke-linecap="round"/>
<path d="M966.379 238.293C975.76 238.293 984.859 240.311 994.305 240.028C1008.26 239.61 1021.72 237.775 1035.74 238.69C1052.54 239.788 1068.78 243.237 1084.7 248.053" stroke="white" stroke-opacity="0.17" stroke-linecap="round"/>
<path d="M17.9473 355.141C33.163 333.567 56.8672 315.562 80.6495 302.214C90.1704 296.87 101.667 287.909 112.183 284.351C119.178 281.984 127.198 281.097 134.42 279.224" stroke="white" stroke-opacity="0.17" stroke-linecap="round"/>
<path d="M30.3398 409.217C43.1671 408.508 53.5228 405.787 64.5633 399.438C84.3663 388.05 101.806 373.783 121.997 362.796C163.795 340.053 211.598 326.076 258.772 315.785C304.725 305.76 350.825 296.597 396.91 287.148C415.091 283.421 433.084 279.021 451.442 276.027C460.769 274.505 469.922 273.219 479.034 270.923" stroke="white" stroke-opacity="0.17" stroke-linecap="round"/>
<path d="M80.4365 354.093C102.218 354.093 121.409 340.023 139.647 330.775C151.4 324.815 163.489 320.764 175.291 315.409" stroke="white" stroke-opacity="0.17" stroke-linecap="round"/>
<path d="M286.67 286.377C304.618 283.324 321.337 276.899 338.445 271.321C355.375 265.8 372.24 260.169 389.444 255.359C404.337 251.194 419.705 248.534 435.306 248.384C462.973 248.117 490.749 247.981 518.382 249.323C554.565 251.08 589.524 260.014 624.519 268.135C634.252 270.394 643.694 273.515 653.418 275.781C663.342 278.093 673.406 279.814 683.131 282.756" stroke="white" stroke-opacity="0.17" stroke-linecap="round"/>
<path d="M981.57 419.253C992.087 420.083 1001.07 425.506 1011.31 427.404C1039.7 432.669 1068.63 433.671 1096.91 439.829C1110.48 442.783 1122.45 446.665 1135.29 451.621C1149.03 456.924 1163.36 461.528 1176.23 468.399" stroke="white" stroke-opacity="0.17" stroke-linecap="round"/>
<path d="M620.076 284.221C636.51 291.934 653.703 298.909 671.894 302.416C714.991 310.726 760.428 310.939 804.341 310.939" stroke="white" stroke-opacity="0.17" stroke-linecap="round"/>
<path d="M1094.99 383.33C1118.6 391.608 1142.1 394.745 1167.39 396.115C1194.16 397.565 1221 397.796 1247.81 397.934C1265.51 398.025 1283.48 398.586 1301.1 396.689C1341.27 392.365 1378.5 377.557 1417.93 370.402" stroke="white" stroke-opacity="0.17" stroke-linecap="round"/>
<path d="M881.761 337.976C887.898 340.528 893.491 344.713 899.256 347.905C906.776 352.07 914.109 355.626 922.627 357.835C936.002 361.302 949.75 364.127 963.494 366.048C973.097 367.39 982.933 367.7 992.404 369.419" stroke="white" stroke-opacity="0.17" stroke-linecap="round"/>
<path d="M1271.44 469.015C1273.23 468.44 1274.76 467.344 1276.32 466.397C1281.27 463.392 1286.25 460.424 1291.64 458.091C1307.18 451.364 1325.02 449.062 1341.94 447.009C1347.57 446.325 1353.08 446.264 1358.75 446.264" stroke="white" stroke-opacity="0.17" stroke-linecap="round"/>
<path d="M0.5 626.584C21.9415 626.584 43.3782 626.763 64.7363 624.206C161.324 612.643 257.389 592.478 353.473 576.764C410.102 567.502 466.533 555.956 523.972 555.956C544.387 555.956 565.175 555.834 585.377 559.523C631.296 567.908 676.006 586.673 720.709 600.425C807.151 627.018 891.845 649.979 980.921 662.849C1074.08 676.309 1168.16 684.769 1261.93 691.267C1305.18 694.265 1350.39 699.095 1393.56 691.743C1411.08 688.757 1434.08 684.02 1448.76 672.48C1453.54 668.723 1461.33 669.257 1466.4 665.108" stroke="white" stroke-opacity="0.17" stroke-linecap="round"/>
<path d="M65.167 804.217C73.7404 801.096 81.4742 794.586 89.3373 789.949C124.281 769.341 161.747 754.749 199.737 742.388C246.59 727.143 294.508 716.025 341.928 703.15C376.269 693.826 410.51 684.752 445.359 677.942C497.48 667.758 547.24 665.009 600.18 671.284C685.759 681.427 763.205 721.217 840.576 759.747C908.419 793.533 981.608 821.633 1056.15 830.613C1083.78 833.942 1111.6 833.714 1139.33 835.132C1169.99 836.7 1200.5 838.828 1231.22 837.51C1287.49 835.095 1344.34 823.108 1399.32 810.162C1420.72 805.124 1440.37 796.154 1460.51 787.095" stroke="white" stroke-opacity="0.17" stroke-linecap="round"/>
<path d="M67.127 930.492C94.3712 915.837 118.933 897.561 144.864 880.434C179.587 857.499 217.162 837.225 255.154 821.577C329.657 790.891 407.523 778.534 486.732 778.534C555.938 778.534 624.738 787.281 692.397 803.028C725.309 810.688 757.533 820.544 790.058 829.9C831.51 841.824 873.879 849.418 915.047 862.479C1037.61 901.367 1160.72 933.778 1289.14 934.772C1309.51 934.93 1329.97 935.254 1350.33 934.653C1368.74 934.11 1383.27 925.463 1400.3 919.077C1414.4 913.792 1428.49 907.437 1440.91 898.388" stroke="white" stroke-opacity="0.17" stroke-linecap="round"/>
<path d="M157.277 956.178C203.908 956.178 243.876 929.751 286.621 913.254C345.487 890.536 409.024 879.472 470.62 870.33C522.123 862.686 574.031 864.147 625.876 864.147C651.774 864.147 677.775 864.057 703.613 866.287C723.826 868.032 742.895 874.463 762.406 880.08C829.12 899.288 896.942 932.635 966.655 932.635" stroke="white" stroke-opacity="0.17" stroke-linecap="round"/>
<path d="M357.172 954.031C362.737 958.893 372.349 957.803 378.729 957.598C401.47 956.868 423.686 951.942 445.579 945.47C481.349 934.897 516.035 924.264 552.712 917.409C597.103 909.113 640.393 909.086 685.322 909.086C722.686 909.086 762.075 918.168 798.225 928.467C809.161 931.583 820.15 933.868 831.432 934.769C838.164 935.307 844.267 939.959 851.03 941.19" stroke="white" stroke-opacity="0.17" stroke-linecap="round"/>
<path d="M641.239 489.821C658.962 501.012 677.344 512.575 696.088 521.798C721.102 534.106 746.087 535.641 773.454 539.337C875.63 553.138 977.756 553.955 1080.72 557.593C1133.37 559.453 1186.94 560.675 1239.5 556.399C1267.48 554.123 1295.06 554.954 1322.75 549.837C1348.06 545.158 1373.61 539.184 1399.19 536.593C1421.94 534.288 1443.81 525.925 1466.4 522.036" stroke="white" stroke-opacity="0.17" stroke-linecap="round"/>
<path d="M65.167 532.405C107.369 543.927 147.171 549.945 190.918 549.408C236.389 548.85 280.696 541.589 325.379 532.88C402.414 517.866 476.608 495.219 551.948 472.716C614.836 453.931 681.688 445.802 746.617 442.752C771.094 441.602 800.096 438.242 823.591 446.795" stroke="white" stroke-opacity="0.17" stroke-linecap="round"/>
<path d="M921.589 600.901C937.018 602.063 950.167 609.098 964.921 613.505C995.976 622.781 1029.03 622.125 1060.95 622.303C1124.84 622.66 1185.99 616.989 1249.09 607.203C1296.92 599.784 1344.7 588.843 1392.8 583.779C1412.96 581.657 1432.37 575.218 1452.68 575.218" stroke="white" stroke-opacity="0.17" stroke-linecap="round"/>
<path d="M4.9707 538.958C14.2348 534.531 20.9545 522.088 27.6673 514.319C36.0474 504.621 44.8061 495.72 55.3246 488.864C78.8448 473.535 102.751 464.987 130.006 463.113C156.203 461.31 183.784 461.63 209.92 463.484C243.001 465.83 276.545 464.151 309.676 464.151C341.982 464.151 373.116 462.042 405.219 458.066C431.517 454.809 457.301 447.485 483.366 442.778C497.364 440.251 510.447 435.149 523.731 430.162C529.322 428.063 534.674 425.124 540.448 423.78C544.732 422.783 547.197 419.44 551.728 418.733" stroke="white" stroke-opacity="0.17" stroke-linecap="round"/>
<path d="M791.373 484.697C816.499 488.752 839.511 500.643 865.157 502.646C905.08 505.764 945.959 504.899 985.753 500.708C1055.58 493.353 1126.12 484.544 1195.27 472.478C1248.38 463.21 1303.08 460.427 1357.02 460.427C1380.08 460.427 1403.14 460.427 1426.2 460.427C1440.29 460.427 1453.08 460.681 1466.39 464.978" stroke="white" stroke-opacity="0.17" stroke-linecap="round"/>
<path d="M842.207 415C884.258 416.361 911.664 431.047 948.525 437.45C968.72 440.959 987.92 445.5 1009.3 447.466C1050.09 451.216 1094.22 449.193 1135.63 449.193C1172.28 449.193 1208.13 449.415 1244.23 446.085C1276.95 443.068 1308.52 438.082 1341.21 435.119C1379.23 431.673 1431.8 432.165 1466.39 424.325" stroke="white" stroke-opacity="0.17" stroke-linecap="round"/>
<path d="M1147.15 422.611C1169.53 422.611 1191.41 419.668 1213.69 417.99C1232.04 416.608 1250.5 416.94 1268.89 416.94C1284 416.94 1299.13 416.391 1314.18 417.885" stroke="white" stroke-opacity="0.17" stroke-linecap="round"/>
<path d="M39.5215 451.849C54.6259 451.849 68.1511 445.07 82.0992 439.639C104.677 430.848 126.517 426.803 150.25 425.382C167.131 424.372 183.711 422.897 200.728 422.897C211.691 422.897 222.579 424.213 233.531 424.213" stroke="white" stroke-opacity="0.17" stroke-linecap="round"/>
<path d="M309.453 422.896C320.896 422.896 331.956 425.528 343.328 425.528C351.381 425.528 359.62 426.131 367.495 423.92C377.371 421.146 386.056 416.479 396.215 415" stroke="white" stroke-opacity="0.17" stroke-linecap="round"/>
<path d="M60.0166 720.313C68.2645 717.685 76.1552 712.717 83.7155 708.468C103.612 697.289 123.274 685.826 143.967 676.445C184.578 658.035 228.177 645.279 270.897 634.187C318.521 621.822 366.539 606.327 415.501 601.871" stroke="white" stroke-opacity="0.17" stroke-linecap="round"/>
<path d="M396.219 641.354C418.144 645.788 439.765 645.618 461.96 642.67C485.097 639.597 505.644 631.078 527.232 622.199C543.293 615.593 562.297 608.154 579.383 605.822" stroke="white" stroke-opacity="0.17" stroke-linecap="round"/>
<path d="M599.557 590.803C614.054 592.624 626.677 600.97 640.756 604.767C652.669 607.979 664.474 611.129 675.854 616.266C688.518 621.982 700.596 629.768 712.332 637.439C727.823 647.565 742.654 660.926 755.411 674.858C761.858 681.899 769.238 688.224 775.551 695.119" stroke="white" stroke-opacity="0.17" stroke-linecap="round"/>
<path d="M855.719 694.881C922.627 724.566 995.831 735.03 1067.35 745.769C1099.88 750.654 1134.37 747.727 1166.96 747.727C1224.51 747.727 1282.06 747.727 1339.61 747.727" stroke="white" stroke-opacity="0.17" stroke-linecap="round"/>
<path d="M793.386 676.701C811.671 677.699 829.343 675.7 847.547 673.799C865.745 671.899 883.874 671.647 902.136 671.647" stroke="white" stroke-opacity="0.17" stroke-linecap="round"/>
<path d="M937.399 746.884C953.537 754.305 967.275 769.403 982.259 779.363C1004.86 794.389 1034.45 803.254 1060.26 806.943C1085.13 810.497 1110.03 810.04 1135.03 810.754C1150.01 811.182 1164.8 813.666 1179.81 813.838C1189.72 813.952 1199.63 813.838 1209.55 813.838" stroke="white" stroke-opacity="0.17" stroke-linecap="round"/>
<path d="M1275.76 771.981C1284.69 773.754 1293.09 781.091 1301.98 784.038C1322.04 790.691 1343.36 783.959 1362.39 776.502C1379.93 769.634 1396.83 761.948 1412.54 750.88C1418.85 746.433 1428.46 743.87 1433.08 738.823" stroke="white" stroke-opacity="0.17" stroke-linecap="round"/>
<path d="M975.604 693.478C985.155 693.478 994.417 695.95 1004.03 695.603C1018.24 695.092 1031.94 692.843 1046.21 693.965C1063.31 695.31 1079.84 699.536 1096.05 705.436" stroke="white" stroke-opacity="0.17" stroke-linecap="round"/>
<path d="M10.1182 836.638C25.6075 810.207 49.738 788.148 73.948 771.793C83.6401 765.246 95.3434 754.267 106.048 749.908C113.17 747.008 121.333 745.92 128.686 743.626" stroke="white" stroke-opacity="0.17" stroke-linecap="round"/>
<path d="M22.7314 902.892C35.7894 902.024 46.3313 898.691 57.5703 890.912C77.7295 876.959 95.4826 859.479 116.037 846.018C158.587 818.153 207.249 801.029 255.272 788.42C302.051 776.138 348.98 764.911 395.893 753.335C414.402 748.768 432.718 743.378 451.406 739.709C460.901 737.845 470.218 736.269 479.494 733.455" stroke="white" stroke-opacity="0.17" stroke-linecap="round"/>
<path d="M73.7295 835.355C95.9023 835.355 115.439 818.117 134.004 806.786C145.969 799.484 158.276 794.52 170.29 787.96" stroke="white" stroke-opacity="0.17" stroke-linecap="round"/>
<path d="M283.673 752.39C301.944 748.649 318.964 740.778 336.379 733.943C353.614 727.179 370.782 720.28 388.295 714.386C403.456 709.284 419.101 706.025 434.982 705.841C463.146 705.513 491.422 705.347 519.552 706.991C556.385 709.144 591.973 720.091 627.597 730.04C637.506 732.807 647.118 736.631 657.016 739.407C667.119 742.24 677.364 744.349 687.263 747.953" stroke="white" stroke-opacity="0.17" stroke-linecap="round"/>
<path d="M991.068 915.189C1001.77 916.206 1010.92 922.85 1021.34 925.176C1050.24 931.626 1079.7 932.853 1108.48 940.399C1122.29 944.018 1134.48 948.773 1147.55 954.846C1161.54 961.343 1176.13 966.983 1189.23 975.401" stroke="white" stroke-opacity="0.17" stroke-linecap="round"/>
<path d="M623.073 749.749C639.802 759.199 657.305 767.744 675.823 772.041C719.695 782.223 765.949 782.483 810.652 782.483" stroke="white" stroke-opacity="0.17" stroke-linecap="round"/>
<path d="M1106.53 871.177C1130.57 881.319 1154.48 885.161 1180.23 886.84C1207.48 888.617 1234.8 888.9 1262.09 889.069C1280.11 889.181 1298.41 889.868 1316.35 887.544C1357.23 882.246 1395.14 864.103 1435.28 855.337" stroke="white" stroke-opacity="0.17" stroke-linecap="round"/>
<path d="M889.466 815.608C895.713 818.735 901.407 823.862 907.275 827.774C914.931 832.876 922.396 837.234 931.067 839.939C944.683 844.188 958.678 847.649 972.668 850.002C982.445 851.646 992.458 852.027 1002.1 854.132" stroke="white" stroke-opacity="0.17" stroke-linecap="round"/>
<path d="M1286.15 976.157C1287.97 975.452 1289.53 974.11 1291.12 972.949C1296.15 969.267 1301.23 965.631 1306.72 962.772C1322.53 954.531 1340.69 951.71 1357.92 949.194C1363.65 948.357 1369.26 948.282 1375.03 948.282" stroke="white" stroke-opacity="0.17" stroke-linecap="round"/>
</svg>
