<svg width="67" height="204" viewBox="0 0 67 204" fill="none" xmlns="http://www.w3.org/2000/svg">
<path d="M24.4324 1.00024C30.8027 3.93466 37.6742 10.7915 43.8232 18.909C51.2802 28.7534 56.8437 40.755 61.5256 56.71C65.787 71.2321 65.7208 87.9269 64.9909 100.446C64.1237 115.32 48.0847 121.886 35.3001 128.773C27.2522 133.108 15.644 132.238 6.30986 130.778C2.56793 130.193 1.84183 126.399 1.34046 122.948C0.282065 115.664 1.81234 109.161 4.26018 104.501C5.50217 102.137 7.68118 100.328 12.5768 99.3254C25.0391 96.7729 38.6327 100.756 47.4728 105.902C59.2345 112.749 58.3478 128.729 59.5717 142.265C60.1246 148.38 57.876 153.841 53.9536 158.257C46.4355 166.722 32.8376 168.601 22.5008 177.906C20.5101 180.87 19.5368 183.789 19.0354 187.24C18.5341 190.691 18.5341 194.583 18.5341 198.594" stroke="white" stroke-opacity="0.4" stroke-width="2" stroke-linecap="round"/>
<path d="M10.4238 189.747C12.3702 190.72 14.8328 193.168 18.0179 197.09C19.7432 199.066 21.6896 201.013 24.1522 201.772C26.6147 202.531 29.5344 202.045 36.9663 200.069" stroke="white" stroke-opacity="0.4" stroke-width="2" stroke-linecap="round"/>
</svg>
